<svg xmlns="http://www.w3.org/2000/svg" xmlns:xlink="http://www.w3.org/1999/xlink" width="500" zoomAndPan="magnify" viewBox="0 0 375 374.999991" height="500" preserveAspectRatio="xMidYMid meet" version="1.0"><defs><g/><clipPath id="78398a6add"><path d="M 75.300781 70.078125 L 310.140625 70.078125 L 310.140625 304.921875 L 75.300781 304.921875 Z M 75.300781 70.078125 " clip-rule="nonzero"/></clipPath><clipPath id="3ed7fe4a85"><path d="M 192.71875 70.078125 C 127.871094 70.078125 75.300781 122.648438 75.300781 187.5 C 75.300781 252.351562 127.871094 304.921875 192.71875 304.921875 C 257.570312 304.921875 310.140625 252.351562 310.140625 187.5 C 310.140625 122.648438 257.570312 70.078125 192.71875 70.078125 Z M 192.71875 70.078125 " clip-rule="nonzero"/></clipPath><clipPath id="30ac6e5ec6"><path d="M 74 75.929688 L 309.898438 75.929688 L 309.898438 312.179688 L 74 312.179688 Z M 74 75.929688 " clip-rule="nonzero"/></clipPath><clipPath id="d44f6b3926"><path d="M 307.503906 173.992188 C 306.246094 166.753906 304.3125 159.703125 301.703125 152.835938 C 299.089844 145.96875 295.851562 139.414062 291.980469 133.171875 C 288.148438 126.976562 283.785156 121.183594 278.886719 115.796875 C 274.027344 110.457031 268.738281 105.585938 263.019531 101.183594 L 259.015625 98.207031 L 254.5625 95.207031 C 253.003906 94.222656 251.378906 93.253906 249.738281 92.246094 C 248.058594 91.296875 246.324219 90.375 244.589844 89.410156 C 237.453125 85.707031 230.023438 82.730469 222.304688 80.488281 L 219.507812 79.71875 L 218.132812 79.335938 C 217.675781 79.207031 217.210938 79.121094 216.753906 79.015625 L 214.042969 78.410156 C 213.148438 78.21875 212.277344 77.988281 211.398438 77.859375 L 206.339844 76.996094 L 201.667969 76.4375 C 201.300781 76.398438 200.9375 76.347656 200.574219 76.3125 L 199.511719 76.242188 L 197.484375 76.109375 L 195.601562 75.996094 L 194.722656 75.941406 L 193.878906 75.933594 C 191.683594 75.921875 189.933594 75.933594 188.738281 75.972656 L 194.910156 76.15625 L 198.046875 76.398438 L 199.625 76.519531 C 200.148438 76.554688 200.671875 76.589844 201.195312 76.667969 L 204.3125 77.0625 C 205.34375 77.203125 206.378906 77.296875 207.386719 77.503906 L 210.382812 78.042969 L 211.847656 78.308594 C 212.335938 78.390625 212.808594 78.523438 213.28125 78.628906 L 212.1875 78.394531 L 211.046875 78.203125 L 208.671875 77.8125 C 207.867188 77.6875 207.039062 77.53125 206.199219 77.414062 L 203.644531 77.117188 L 206.152344 77.4375 C 207 77.5625 207.84375 77.734375 208.6875 77.878906 C 210.367188 78.195312 212.039062 78.429688 213.53125 78.800781 C 212.292969 78.5 211.019531 78.308594 209.941406 78.132812 C 208.867188 77.957031 207.984375 77.820312 207.5 77.757812 L 210.667969 78.320312 C 211.222656 78.421875 211.796875 78.503906 212.359375 78.625 L 214.046875 79 L 217.261719 79.707031 C 217.765625 79.808594 218.238281 79.953125 218.683594 80.070312 L 219.917969 80.40625 C 221.707031 80.789062 229.746094 83.308594 231.933594 84.332031 C 226.109375 82.085938 218.527344 79.859375 213.515625 78.996094 C 215.609375 79.496094 217.707031 79.910156 219.703125 80.539062 C 219.078125 80.378906 218.308594 80.152344 217.472656 79.945312 L 214.878906 79.371094 L 212.523438 78.855469 C 211.839844 78.699219 211.277344 78.644531 210.953125 78.589844 L 211.933594 78.765625 C 212.257812 78.824219 212.578125 78.90625 212.894531 78.976562 L 214.785156 79.40625 L 216.652344 79.835938 L 217.582031 80.046875 C 217.886719 80.125 218.191406 80.214844 218.5 80.300781 L 222.210938 81.347656 L 223.160156 81.617188 L 224.105469 81.9375 L 226.039062 82.59375 L 227.617188 83.132812 C 228.136719 83.3125 228.65625 83.480469 229.152344 83.691406 L 232.121094 84.875 L 233.589844 85.457031 C 234.078125 85.652344 234.550781 85.886719 235.03125 86.097656 L 237.9375 87.40625 L 234.191406 85.734375 C 232.878906 85.183594 231.511719 84.679688 230.207031 84.164062 C 229.546875 83.917969 228.910156 83.648438 228.28125 83.433594 L 226.449219 82.832031 L 223.398438 81.847656 L 226.832031 83.03125 L 228.574219 83.628906 L 230.285156 84.304688 C 230.007812 84.203125 229.84375 84.148438 229.78125 84.132812 L 233.160156 85.496094 C 233.191406 85.519531 233.222656 85.539062 233.257812 85.558594 L 233.269531 85.554688 L 234.085938 85.921875 C 239.050781 88.136719 243.859375 90.640625 248.519531 93.441406 C 249.695312 94.1875 250.835938 94.941406 251.960938 95.675781 C 252.519531 96.050781 253.089844 96.394531 253.621094 96.789062 L 255.210938 97.960938 L 256.773438 99.121094 C 257.292969 99.507812 257.8125 99.886719 258.300781 100.304688 L 261.246094 102.75 C 265.160156 106.152344 268.875 109.757812 272.386719 113.574219 C 277.023438 118.542969 281.101562 123.933594 284.628906 129.746094 C 288.179688 135.652344 291.269531 141.792969 293.894531 148.164062 C 296.398438 154.160156 298.410156 160.320312 299.921875 166.640625 L 300.496094 169.023438 C 300.6875 169.816406 300.808594 170.628906 300.96875 171.429688 L 301.425781 173.84375 L 301.652344 175.050781 L 301.820312 176.269531 C 302.035156 177.894531 302.285156 179.515625 302.472656 181.148438 C 302.613281 182.785156 302.753906 184.425781 302.894531 186.0625 C 303.300781 192.65625 303.132812 199.234375 302.386719 205.796875 L 302.070312 208.246094 C 301.957031 209.058594 301.875 209.878906 301.707031 210.6875 L 300.796875 215.53125 C 300.402344 217.125 300.011719 218.71875 299.617188 220.308594 C 299.4375 221.109375 299.175781 221.886719 298.9375 222.667969 L 298.214844 225.011719 C 296.320312 230.796875 294 236.410156 291.261719 241.84375 C 288.523438 247.132812 285.414062 252.1875 281.929688 257.011719 C 278.503906 261.753906 274.722656 266.1875 270.582031 270.320312 C 268.574219 272.40625 266.402344 274.3125 264.265625 276.238281 L 260.9375 278.980469 C 260.394531 279.449219 259.8125 279.867188 259.238281 280.296875 L 257.515625 281.582031 C 256.9375 282.007812 256.375 282.449219 255.789062 282.855469 L 254.007812 284.050781 L 252.230469 285.246094 C 251.933594 285.441406 251.644531 285.652344 251.339844 285.835938 L 250.421875 286.386719 L 246.757812 288.585938 L 242.996094 290.605469 C 237.929688 293.195312 232.703125 295.394531 227.308594 297.191406 C 221.894531 298.921875 216.382812 300.234375 210.773438 301.128906 C 205.132812 301.953125 199.464844 302.328125 193.765625 302.257812 C 188.574219 302.171875 183.417969 301.730469 178.289062 300.933594 C 173.164062 300.132812 168.113281 298.980469 163.144531 297.480469 C 158.175781 295.980469 153.335938 294.140625 148.621094 291.96875 C 143.910156 289.792969 139.367188 287.304688 134.996094 284.5 C 129.242188 280.808594 123.835938 276.664062 118.78125 272.0625 C 114.417969 268.050781 110.429688 263.6875 106.820312 258.980469 C 102.527344 253.367188 98.769531 247.414062 95.546875 241.125 C 95.140625 240.328125 94.734375 239.53125 94.328125 238.734375 L 94.023438 238.140625 L 93.75 237.53125 L 93.203125 236.320312 C 92.839844 235.511719 92.464844 234.714844 92.09375 233.921875 C 91.898438 233.527344 91.738281 233.121094 91.574219 232.71875 C 91.410156 232.3125 91.242188 231.914062 91.078125 231.511719 C 90.746094 230.714844 90.414062 229.921875 90.089844 229.136719 C 89.914062 228.746094 89.78125 228.34375 89.632812 227.949219 C 89.488281 227.554688 89.347656 227.160156 89.203125 226.769531 C 88.917969 225.984375 88.621094 225.214844 88.328125 224.449219 L 88.109375 223.878906 L 87.917969 223.304688 C 87.792969 222.921875 87.667969 222.542969 87.542969 222.164062 C 87.289062 221.414062 87.035156 220.671875 86.789062 219.941406 L 86.417969 218.855469 C 86.308594 218.492188 86.203125 218.128906 86.097656 217.773438 C 85.683594 216.347656 85.234375 214.980469 84.824219 213.667969 C 84.117188 211.027344 83.328125 208.65625 82.773438 206.589844 C 82.894531 207.289062 83.015625 207.988281 83.140625 208.691406 C 83.292969 209.386719 83.449219 210.082031 83.605469 210.78125 L 84.0625 212.875 L 84.289062 213.925781 C 84.371094 214.269531 84.472656 214.617188 84.5625 214.964844 C 84.933594 216.347656 85.277344 217.738281 85.625 219.132812 C 86.035156 220.507812 86.449219 221.886719 86.863281 223.265625 C 86.964844 223.609375 87.058594 223.960938 87.171875 224.300781 L 87.523438 225.320312 L 88.222656 227.367188 C 88.457031 228.050781 88.660156 228.742188 88.917969 229.417969 L 89.695312 231.4375 L 90.464844 233.464844 L 90.660156 233.972656 L 90.875 234.472656 L 91.308594 235.464844 L 92.15625 237.460938 C 92.4375 238.128906 92.703125 238.804688 93.03125 239.449219 C 93.652344 240.757812 94.269531 242.066406 94.890625 243.371094 C 95.566406 244.648438 96.242188 245.929688 96.90625 247.214844 C 97.078125 247.535156 97.230469 247.863281 97.414062 248.171875 L 97.960938 249.109375 L 99.042969 250.988281 C 99.410156 251.605469 99.742188 252.25 100.140625 252.851562 L 101.304688 254.675781 L 102.457031 256.503906 C 102.839844 257.117188 103.273438 257.683594 103.679688 258.28125 C 104.089844 258.867188 104.5 259.457031 104.910156 260.046875 L 105.527344 260.929688 C 105.730469 261.226562 105.960938 261.5 106.171875 261.785156 L 108.773438 265.191406 L 111.511719 268.453125 C 107.144531 263.984375 103.203125 259.171875 99.679688 254.011719 L 99 253.058594 L 98.371094 252.070312 L 97.101562 250.089844 C 96.226562 248.792969 95.472656 247.414062 94.6875 246.058594 C 94.300781 245.375 93.894531 244.703125 93.511719 244.019531 L 92.433594 241.925781 L 91.351562 239.832031 C 90.988281 239.136719 90.6875 238.40625 90.351562 237.695312 C 88.996094 234.855469 87.820312 231.933594 86.703125 228.984375 C 86.195312 227.492188 85.648438 226.011719 85.144531 224.515625 L 83.785156 219.976562 C 83.371094 218.449219 83.027344 216.90625 82.628906 215.375 C 82.539062 214.988281 82.425781 214.609375 82.347656 214.222656 L 82.117188 213.058594 L 81.652344 210.730469 C 81.304688 209.179688 81.109375 207.609375 80.871094 206.039062 L 80.515625 203.6875 L 80.269531 201.320312 C 78.921875 188.558594 79.605469 175.910156 82.320312 163.371094 L 82.847656 161.039062 C 83.023438 160.265625 83.183594 159.480469 83.414062 158.71875 C 83.839844 157.183594 84.265625 155.648438 84.691406 154.117188 C 85.1875 152.597656 85.683594 151.085938 86.175781 149.574219 C 86.292969 149.191406 86.4375 148.820312 86.578125 148.449219 L 87.003906 147.335938 L 87.847656 145.097656 C 90.199219 139.167969 93.015625 133.464844 96.296875 127.996094 C 93.207031 133.066406 90.507812 138.339844 88.203125 143.816406 C 85.976562 149.265625 84.136719 154.847656 82.6875 160.554688 L 81.679688 164.824219 L 80.871094 169.128906 L 80.667969 170.203125 L 80.515625 171.285156 L 80.214844 173.449219 L 79.902344 175.609375 L 79.488281 179.953125 L 79.378906 181.035156 C 79.34375 181.398438 79.339844 181.761719 79.320312 182.125 L 79.101562 186.472656 C 79.0625 187.921875 79.082031 189.375 79.066406 190.820312 L 79.054688 192.449219 L 79.074219 192.992188 L 79.164062 195.164062 C 79.214844 198.058594 79.539062 200.9375 79.78125 203.8125 L 80.351562 208.101562 L 80.492188 209.171875 L 80.683594 210.238281 L 81.070312 212.363281 C 82.097656 218.035156 83.542969 223.597656 85.402344 229.050781 L 85.730469 230.078125 C 85.839844 230.421875 85.980469 230.753906 86.101562 231.089844 L 86.863281 233.105469 L 87.617188 235.125 C 87.886719 235.789062 88.179688 236.445312 88.460938 237.105469 L 89.304688 239.089844 L 89.722656 240.082031 C 89.871094 240.40625 90.035156 240.726562 90.1875 241.050781 C 90.808594 242.347656 91.433594 243.644531 92.054688 244.9375 C 94.6875 250.054688 97.652344 254.972656 100.949219 259.6875 C 104.257812 264.410156 107.902344 268.855469 111.882812 273.027344 C 112.875 274.066406 113.84375 275.136719 114.90625 276.113281 C 115.949219 277.101562 116.96875 278.125 118.035156 279.089844 L 121.289062 281.9375 C 121.820312 282.425781 122.402344 282.847656 122.964844 283.300781 L 124.65625 284.648438 C 125.226562 285.089844 125.773438 285.566406 126.363281 285.980469 L 128.113281 287.246094 C 129.285156 288.085938 130.4375 288.957031 131.664062 289.71875 C 132.875 290.496094 134.066406 291.3125 135.296875 292.070312 L 139.03125 294.261719 C 144.082031 297.074219 149.300781 299.523438 154.695312 301.601562 C 160.121094 303.605469 165.652344 305.234375 171.296875 306.488281 C 176.953125 307.65625 182.664062 308.449219 188.429688 308.859375 C 189.867188 308.945312 191.304688 308.976562 192.746094 309.039062 C 193.46875 309.0625 194.1875 309.101562 194.910156 309.113281 L 197.066406 309.085938 L 199.230469 309.058594 C 199.949219 309.046875 200.671875 309.058594 201.386719 308.996094 L 205.699219 308.730469 C 206.058594 308.703125 206.417969 308.695312 206.777344 308.652344 L 207.847656 308.53125 L 209.992188 308.292969 L 212.140625 308.050781 C 212.855469 307.96875 213.558594 307.828125 214.269531 307.722656 C 215.6875 307.484375 217.109375 307.273438 218.523438 307.015625 L 222.738281 306.113281 C 221.113281 306.527344 219.492188 306.984375 217.847656 307.363281 L 212.859375 308.390625 C 211.183594 308.679688 209.488281 308.917969 207.792969 309.183594 C 207.371094 309.246094 206.945312 309.324219 206.519531 309.371094 L 205.234375 309.5 L 202.660156 309.761719 C 195.679688 310.390625 188.691406 310.40625 181.707031 309.8125 C 174.5625 309.210938 167.542969 307.9375 160.644531 305.992188 C 155.347656 304.507812 150.183594 302.652344 145.152344 300.425781 C 140.121094 298.199219 135.273438 295.628906 130.609375 292.707031 C 125.945312 289.785156 121.511719 286.542969 117.3125 282.988281 C 113.109375 279.429688 109.183594 275.589844 105.53125 271.46875 C 100.613281 265.929688 96.253906 259.980469 92.453125 253.621094 C 88.652344 247.261719 85.476562 240.601562 82.929688 233.640625 C 81.691406 230.226562 80.609375 226.761719 79.679688 223.25 C 78.75 219.738281 77.980469 216.191406 77.367188 212.609375 C 76.753906 209.027344 76.300781 205.425781 76.007812 201.804688 C 75.714844 198.183594 75.582031 194.554688 75.613281 190.921875 C 75.644531 187.289062 75.835938 183.664062 76.191406 180.046875 C 76.542969 176.429688 77.058594 172.835938 77.730469 169.265625 C 78.402344 165.695312 79.234375 162.164062 80.222656 158.667969 C 81.210938 155.167969 82.351562 151.726562 83.648438 148.332031 C 86.167969 141.761719 89.253906 135.472656 92.910156 129.464844 C 96.566406 123.457031 100.730469 117.824219 105.398438 112.570312 C 109.9375 107.484375 114.894531 102.847656 120.269531 98.660156 L 122.277344 97.148438 L 123.777344 96.023438 L 124.292969 95.671875 L 128.410156 92.890625 L 132.628906 90.339844 C 133.324219 89.902344 134.054688 89.542969 134.769531 89.152344 L 136.917969 88.003906 L 138.226562 87.304688 L 139.582031 86.664062 L 142.328125 85.371094 C 143.238281 84.917969 144.183594 84.542969 145.117188 84.160156 L 147.914062 83.011719 L 148.605469 82.726562 L 149.304688 82.476562 L 150.691406 81.988281 L 153.394531 81.035156 L 154.054688 80.804688 L 154.714844 80.609375 L 156.007812 80.222656 L 158.472656 79.492188 C 152.125 81.203125 145.984375 83.484375 140.054688 86.324219 C 133.863281 89.273438 127.992188 92.761719 122.441406 96.789062 C 116.890625 100.820312 111.753906 105.324219 107.03125 110.300781 C 102.175781 115.4375 97.824219 120.96875 93.980469 126.898438 C 90.070312 132.9375 86.726562 139.277344 83.953125 145.914062 C 81.175781 152.554688 79.011719 159.386719 77.457031 166.414062 C 74.273438 180.820312 73.65625 195.335938 75.617188 209.960938 C 76.621094 217.296875 78.289062 224.480469 80.621094 231.511719 C 82.957031 238.539062 85.914062 245.292969 89.5 251.773438 C 93.09375 258.269531 97.265625 264.371094 102.011719 270.078125 C 106.761719 275.785156 112 280.996094 117.730469 285.710938 C 123.398438 290.367188 129.453125 294.449219 135.890625 297.957031 C 142.332031 301.46875 149.039062 304.339844 156.023438 306.574219 C 162.867188 308.761719 169.851562 310.316406 176.980469 311.234375 L 182.261719 311.785156 C 184.019531 311.914062 185.78125 311.984375 187.535156 312.082031 C 187.972656 312.101562 188.410156 312.132812 188.847656 312.144531 L 190.164062 312.144531 L 192.785156 312.148438 L 194.09375 312.148438 C 194.53125 312.148438 194.964844 312.15625 195.398438 312.125 L 198.003906 311.992188 L 200.390625 311.871094 L 200.988281 311.839844 L 201.585938 311.777344 L 202.773438 311.65625 L 205.15625 311.414062 L 206.351562 311.289062 C 206.75 311.25 207.144531 311.207031 207.539062 311.136719 L 212.28125 310.402344 C 213.078125 310.296875 213.851562 310.097656 214.640625 309.945312 L 216.992188 309.453125 C 223.285156 308.070312 229.429688 306.1875 235.417969 303.8125 C 241.417969 301.371094 247.183594 298.46875 252.71875 295.105469 L 254.78125 293.816406 L 255.808594 293.167969 L 256.324219 292.84375 L 256.824219 292.496094 L 260.816406 289.710938 C 262.121094 288.746094 263.390625 287.734375 264.679688 286.742188 L 265.640625 285.996094 L 266.570312 285.207031 L 268.425781 283.621094 C 288.199219 266.671875 302.042969 242.648438 306.910156 216.738281 C 308.289062 209.6875 309.03125 202.574219 309.132812 195.390625 C 309.230469 188.210938 308.6875 181.078125 307.503906 173.992188 Z M 307.503906 173.992188 " clip-rule="nonzero"/></clipPath><linearGradient x1="-2.211519" gradientTransform="matrix(0.384883, 0, 0, 0.385588, 74.508922, 75.929568)" y1="306.31299" x2="609.856781" gradientUnits="userSpaceOnUse" y2="306.31299" id="f227b95716"><stop stop-opacity="1" stop-color="rgb(68.998718%, 53.69873%, 23.899841%)" offset="0"/><stop stop-opacity="1" stop-color="rgb(68.998718%, 53.69873%, 23.899841%)" offset="0.125"/><stop stop-opacity="1" stop-color="rgb(69.02771%, 53.7323%, 23.936462%)" offset="0.15625"/><stop stop-opacity="1" stop-color="rgb(69.239807%, 53.974915%, 24.209595%)" offset="0.160156"/><stop stop-opacity="1" stop-color="rgb(69.422913%, 54.18396%, 24.44458%)" offset="0.164062"/><stop stop-opacity="1" stop-color="rgb(69.606018%, 54.393005%, 24.679565%)" offset="0.167969"/><stop stop-opacity="1" stop-color="rgb(69.789124%, 54.602051%, 24.916077%)" offset="0.171875"/><stop stop-opacity="1" stop-color="rgb(69.972229%, 54.811096%, 25.151062%)" offset="0.175781"/><stop stop-opacity="1" stop-color="rgb(70.155334%, 55.020142%, 25.386047%)" offset="0.179688"/><stop stop-opacity="1" stop-color="rgb(70.33844%, 55.229187%, 25.621033%)" offset="0.183594"/><stop stop-opacity="1" stop-color="rgb(70.521545%, 55.439758%, 25.856018%)" offset="0.1875"/><stop stop-opacity="1" stop-color="rgb(70.704651%, 55.648804%, 26.091003%)" offset="0.191406"/><stop stop-opacity="1" stop-color="rgb(70.887756%, 55.857849%, 26.327515%)" offset="0.195313"/><stop stop-opacity="1" stop-color="rgb(71.070862%, 56.066895%, 26.5625%)" offset="0.199219"/><stop stop-opacity="1" stop-color="rgb(71.253967%, 56.27594%, 26.797485%)" offset="0.203125"/><stop stop-opacity="1" stop-color="rgb(71.437073%, 56.484985%, 27.032471%)" offset="0.207031"/><stop stop-opacity="1" stop-color="rgb(71.620178%, 56.694031%, 27.268982%)" offset="0.210938"/><stop stop-opacity="1" stop-color="rgb(71.867371%, 56.977844%, 27.574158%)" offset="0.214844"/><stop stop-opacity="1" stop-color="rgb(72.114563%, 57.263184%, 27.879333%)" offset="0.21875"/><stop stop-opacity="1" stop-color="rgb(72.422791%, 57.618713%, 28.251648%)" offset="0.222656"/><stop stop-opacity="1" stop-color="rgb(72.732544%, 57.975769%, 28.623962%)" offset="0.226563"/><stop stop-opacity="1" stop-color="rgb(73.040771%, 58.331299%, 28.996277%)" offset="0.230469"/><stop stop-opacity="1" stop-color="rgb(73.350525%, 58.688354%, 29.368591%)" offset="0.234375"/><stop stop-opacity="1" stop-color="rgb(73.658752%, 59.04541%, 29.740906%)" offset="0.238281"/><stop stop-opacity="1" stop-color="rgb(73.968506%, 59.402466%, 30.11322%)" offset="0.242188"/><stop stop-opacity="1" stop-color="rgb(74.276733%, 59.757996%, 30.485535%)" offset="0.246094"/><stop stop-opacity="1" stop-color="rgb(74.586487%, 60.115051%, 30.857849%)" offset="0.25"/><stop stop-opacity="1" stop-color="rgb(74.894714%, 60.470581%, 31.230164%)" offset="0.253906"/><stop stop-opacity="1" stop-color="rgb(75.204468%, 60.827637%, 31.602478%)" offset="0.257812"/><stop stop-opacity="1" stop-color="rgb(75.512695%, 61.184692%, 31.974792%)" offset="0.261719"/><stop stop-opacity="1" stop-color="rgb(75.822449%, 61.541748%, 32.347107%)" offset="0.265625"/><stop stop-opacity="1" stop-color="rgb(76.130676%, 61.897278%, 32.719421%)" offset="0.269531"/><stop stop-opacity="1" stop-color="rgb(76.44043%, 62.254333%, 33.091736%)" offset="0.273438"/><stop stop-opacity="1" stop-color="rgb(76.748657%, 62.609863%, 33.46405%)" offset="0.277344"/><stop stop-opacity="1" stop-color="rgb(77.058411%, 62.966919%, 33.836365%)" offset="0.28125"/><stop stop-opacity="1" stop-color="rgb(77.366638%, 63.323975%, 34.208679%)" offset="0.285156"/><stop stop-opacity="1" stop-color="rgb(77.676392%, 63.68103%, 34.580994%)" offset="0.289062"/><stop stop-opacity="1" stop-color="rgb(77.984619%, 64.03656%, 34.953308%)" offset="0.292969"/><stop stop-opacity="1" stop-color="rgb(78.294373%, 64.393616%, 35.327148%)" offset="0.296875"/><stop stop-opacity="1" stop-color="rgb(78.6026%, 64.749146%, 35.699463%)" offset="0.300781"/><stop stop-opacity="1" stop-color="rgb(78.912354%, 65.106201%, 36.071777%)" offset="0.304687"/><stop stop-opacity="1" stop-color="rgb(79.220581%, 65.461731%, 36.444092%)" offset="0.308594"/><stop stop-opacity="1" stop-color="rgb(79.530334%, 65.818787%, 36.816406%)" offset="0.3125"/><stop stop-opacity="1" stop-color="rgb(79.893494%, 66.226196%, 37.261963%)" offset="0.316406"/><stop stop-opacity="1" stop-color="rgb(80.258179%, 66.633606%, 37.709045%)" offset="0.320312"/><stop stop-opacity="1" stop-color="rgb(80.628967%, 67.047119%, 38.163757%)" offset="0.324219"/><stop stop-opacity="1" stop-color="rgb(80.999756%, 67.460632%, 38.619995%)" offset="0.328125"/><stop stop-opacity="1" stop-color="rgb(81.370544%, 67.874146%, 39.076233%)" offset="0.332031"/><stop stop-opacity="1" stop-color="rgb(81.742859%, 68.287659%, 39.532471%)" offset="0.335937"/><stop stop-opacity="1" stop-color="rgb(82.113647%, 68.701172%, 39.987183%)" offset="0.339844"/><stop stop-opacity="1" stop-color="rgb(82.484436%, 69.114685%, 40.44342%)" offset="0.34375"/><stop stop-opacity="1" stop-color="rgb(82.804871%, 69.483948%, 40.834045%)" offset="0.347656"/><stop stop-opacity="1" stop-color="rgb(83.126831%, 69.85321%, 41.226196%)" offset="0.351562"/><stop stop-opacity="1" stop-color="rgb(83.204651%, 70.00885%, 41.304016%)" offset="0.359375"/><stop stop-opacity="1" stop-color="rgb(83.360291%, 70.323181%, 41.461182%)" offset="0.367187"/><stop stop-opacity="1" stop-color="rgb(83.522034%, 70.631409%, 41.609192%)" offset="0.375"/><stop stop-opacity="1" stop-color="rgb(83.68988%, 70.932007%, 41.741943%)" offset="0.382812"/><stop stop-opacity="1" stop-color="rgb(83.859253%, 71.229553%, 41.870117%)" offset="0.390625"/><stop stop-opacity="1" stop-color="rgb(84.030151%, 71.5271%, 41.996765%)" offset="0.398437"/><stop stop-opacity="1" stop-color="rgb(84.199524%, 71.824646%, 42.124939%)" offset="0.40625"/><stop stop-opacity="1" stop-color="rgb(84.370422%, 72.123718%, 42.251587%)" offset="0.414062"/><stop stop-opacity="1" stop-color="rgb(84.539795%, 72.421265%, 42.379761%)" offset="0.421875"/><stop stop-opacity="1" stop-color="rgb(84.710693%, 72.718811%, 42.507935%)" offset="0.429687"/><stop stop-opacity="1" stop-color="rgb(84.880066%, 73.016357%, 42.634583%)" offset="0.4375"/><stop stop-opacity="1" stop-color="rgb(85.050964%, 73.313904%, 42.762756%)" offset="0.445312"/><stop stop-opacity="1" stop-color="rgb(85.220337%, 73.61145%, 42.89093%)" offset="0.453125"/><stop stop-opacity="1" stop-color="rgb(85.391235%, 73.908997%, 43.017578%)" offset="0.460937"/><stop stop-opacity="1" stop-color="rgb(85.560608%, 74.206543%, 43.145752%)" offset="0.46875"/><stop stop-opacity="1" stop-color="rgb(85.731506%, 74.504089%, 43.2724%)" offset="0.476562"/><stop stop-opacity="1" stop-color="rgb(85.900879%, 74.801636%, 43.400574%)" offset="0.484375"/><stop stop-opacity="1" stop-color="rgb(86.071777%, 75.099182%, 43.528748%)" offset="0.492187"/><stop stop-opacity="1" stop-color="rgb(86.24115%, 75.398254%, 43.655396%)" offset="0.5"/><stop stop-opacity="1" stop-color="rgb(86.410522%, 75.695801%, 43.783569%)" offset="0.507812"/><stop stop-opacity="1" stop-color="rgb(86.581421%, 75.993347%, 43.910217%)" offset="0.515625"/><stop stop-opacity="1" stop-color="rgb(86.750793%, 76.290894%, 44.038391%)" offset="0.523438"/><stop stop-opacity="1" stop-color="rgb(86.921692%, 76.58844%, 44.166565%)" offset="0.53125"/><stop stop-opacity="1" stop-color="rgb(87.136841%, 76.971436%, 44.500732%)" offset="0.535156"/><stop stop-opacity="1" stop-color="rgb(87.268066%, 77.206421%, 44.770813%)" offset="0.539062"/><stop stop-opacity="1" stop-color="rgb(87.451172%, 77.542114%, 45.285034%)" offset="0.542969"/><stop stop-opacity="1" stop-color="rgb(87.635803%, 77.879333%, 45.800781%)" offset="0.546875"/><stop stop-opacity="1" stop-color="rgb(87.818909%, 78.215027%, 46.315002%)" offset="0.550781"/><stop stop-opacity="1" stop-color="rgb(88.00354%, 78.552246%, 46.829224%)" offset="0.554687"/><stop stop-opacity="1" stop-color="rgb(88.186646%, 78.887939%, 47.343445%)" offset="0.558594"/><stop stop-opacity="1" stop-color="rgb(88.371277%, 79.223633%, 47.859192%)" offset="0.5625"/><stop stop-opacity="1" stop-color="rgb(88.554382%, 79.559326%, 48.373413%)" offset="0.566406"/><stop stop-opacity="1" stop-color="rgb(88.739014%, 79.896545%, 48.88916%)" offset="0.570312"/><stop stop-opacity="1" stop-color="rgb(88.922119%, 80.232239%, 49.403381%)" offset="0.574219"/><stop stop-opacity="1" stop-color="rgb(89.10675%, 80.569458%, 49.917603%)" offset="0.578125"/><stop stop-opacity="1" stop-color="rgb(89.289856%, 80.905151%, 50.431824%)" offset="0.582031"/><stop stop-opacity="1" stop-color="rgb(89.472961%, 81.240845%, 50.947571%)" offset="0.585938"/><stop stop-opacity="1" stop-color="rgb(89.656067%, 81.576538%, 51.461792%)" offset="0.589844"/><stop stop-opacity="1" stop-color="rgb(89.840698%, 81.913757%, 51.977539%)" offset="0.59375"/><stop stop-opacity="1" stop-color="rgb(90.023804%, 82.249451%, 52.49176%)" offset="0.597656"/><stop stop-opacity="1" stop-color="rgb(90.208435%, 82.585144%, 53.005981%)" offset="0.601562"/><stop stop-opacity="1" stop-color="rgb(90.391541%, 82.920837%, 53.520203%)" offset="0.605469"/><stop stop-opacity="1" stop-color="rgb(90.576172%, 83.258057%, 54.03595%)" offset="0.609375"/><stop stop-opacity="1" stop-color="rgb(90.759277%, 83.59375%, 54.550171%)" offset="0.613281"/><stop stop-opacity="1" stop-color="rgb(90.943909%, 83.930969%, 55.065918%)" offset="0.617187"/><stop stop-opacity="1" stop-color="rgb(91.127014%, 84.266663%, 55.580139%)" offset="0.621094"/><stop stop-opacity="1" stop-color="rgb(91.311646%, 84.602356%, 56.095886%)" offset="0.625"/><stop stop-opacity="1" stop-color="rgb(91.494751%, 84.938049%, 56.610107%)" offset="0.628906"/><stop stop-opacity="1" stop-color="rgb(91.679382%, 85.275269%, 57.124329%)" offset="0.632812"/><stop stop-opacity="1" stop-color="rgb(91.862488%, 85.610962%, 57.63855%)" offset="0.636719"/><stop stop-opacity="1" stop-color="rgb(92.047119%, 85.946655%, 58.154297%)" offset="0.640625"/><stop stop-opacity="1" stop-color="rgb(92.230225%, 86.282349%, 58.668518%)" offset="0.644531"/><stop stop-opacity="1" stop-color="rgb(92.414856%, 86.619568%, 59.184265%)" offset="0.648438"/><stop stop-opacity="1" stop-color="rgb(92.597961%, 86.955261%, 59.698486%)" offset="0.652344"/><stop stop-opacity="1" stop-color="rgb(92.782593%, 87.29248%, 60.212708%)" offset="0.65625"/><stop stop-opacity="1" stop-color="rgb(92.965698%, 87.628174%, 60.726929%)" offset="0.660156"/><stop stop-opacity="1" stop-color="rgb(93.15033%, 87.963867%, 61.242676%)" offset="0.664062"/><stop stop-opacity="1" stop-color="rgb(93.333435%, 88.299561%, 61.756897%)" offset="0.667969"/><stop stop-opacity="1" stop-color="rgb(93.518066%, 88.63678%, 62.272644%)" offset="0.671875"/><stop stop-opacity="1" stop-color="rgb(93.701172%, 88.972473%, 62.786865%)" offset="0.675781"/><stop stop-opacity="1" stop-color="rgb(93.885803%, 89.309692%, 63.301086%)" offset="0.679687"/><stop stop-opacity="1" stop-color="rgb(94.068909%, 89.645386%, 63.815308%)" offset="0.683594"/><stop stop-opacity="1" stop-color="rgb(94.25354%, 89.981079%, 64.331055%)" offset="0.6875"/><stop stop-opacity="1" stop-color="rgb(94.436646%, 90.316772%, 64.845276%)" offset="0.691406"/><stop stop-opacity="1" stop-color="rgb(94.621277%, 90.653992%, 65.361023%)" offset="0.695312"/><stop stop-opacity="1" stop-color="rgb(94.804382%, 90.989685%, 65.875244%)" offset="0.699219"/><stop stop-opacity="1" stop-color="rgb(94.989014%, 91.325378%, 66.389465%)" offset="0.703125"/><stop stop-opacity="1" stop-color="rgb(95.172119%, 91.661072%, 66.903687%)" offset="0.707031"/><stop stop-opacity="1" stop-color="rgb(95.35675%, 91.998291%, 67.419434%)" offset="0.710938"/><stop stop-opacity="1" stop-color="rgb(95.539856%, 92.333984%, 67.933655%)" offset="0.714844"/><stop stop-opacity="1" stop-color="rgb(95.724487%, 92.671204%, 68.449402%)" offset="0.71875"/><stop stop-opacity="1" stop-color="rgb(95.907593%, 93.006897%, 68.963623%)" offset="0.722656"/><stop stop-opacity="1" stop-color="rgb(96.092224%, 93.34259%, 69.47937%)" offset="0.726562"/><stop stop-opacity="1" stop-color="rgb(96.27533%, 93.678284%, 69.993591%)" offset="0.730469"/><stop stop-opacity="1" stop-color="rgb(96.459961%, 94.015503%, 70.507812%)" offset="0.734375"/><stop stop-opacity="1" stop-color="rgb(96.643066%, 94.351196%, 71.022034%)" offset="0.738281"/><stop stop-opacity="1" stop-color="rgb(96.827698%, 94.68689%, 71.537781%)" offset="0.742187"/><stop stop-opacity="1" stop-color="rgb(97.010803%, 95.022583%, 72.052002%)" offset="0.746094"/><stop stop-opacity="1" stop-color="rgb(97.195435%, 95.359802%, 72.567749%)" offset="0.75"/><stop stop-opacity="1" stop-color="rgb(97.37854%, 95.695496%, 73.08197%)" offset="0.753906"/><stop stop-opacity="1" stop-color="rgb(97.563171%, 96.032715%, 73.596191%)" offset="0.757812"/><stop stop-opacity="1" stop-color="rgb(97.106934%, 95.361328%, 72.822571%)" offset="0.761719"/><stop stop-opacity="1" stop-color="rgb(96.650696%, 94.691467%, 72.04895%)" offset="0.765625"/><stop stop-opacity="1" stop-color="rgb(96.122742%, 93.910217%, 71.133423%)" offset="0.769531"/><stop stop-opacity="1" stop-color="rgb(95.596313%, 93.128967%, 70.217896%)" offset="0.773438"/><stop stop-opacity="1" stop-color="rgb(95.069885%, 92.347717%, 69.300842%)" offset="0.777344"/><stop stop-opacity="1" stop-color="rgb(94.543457%, 91.566467%, 68.385315%)" offset="0.78125"/><stop stop-opacity="1" stop-color="rgb(94.015503%, 90.785217%, 67.468262%)" offset="0.785156"/><stop stop-opacity="1" stop-color="rgb(93.489075%, 90.003967%, 66.552734%)" offset="0.789062"/><stop stop-opacity="1" stop-color="rgb(92.962646%, 89.221191%, 65.637207%)" offset="0.792969"/><stop stop-opacity="1" stop-color="rgb(92.436218%, 88.439941%, 64.72168%)" offset="0.796875"/><stop stop-opacity="1" stop-color="rgb(91.908264%, 87.658691%, 63.804626%)" offset="0.800781"/><stop stop-opacity="1" stop-color="rgb(91.381836%, 86.877441%, 62.889099%)" offset="0.804687"/><stop stop-opacity="1" stop-color="rgb(90.855408%, 86.096191%, 61.972046%)" offset="0.808594"/><stop stop-opacity="1" stop-color="rgb(90.328979%, 85.314941%, 61.056519%)" offset="0.8125"/><stop stop-opacity="1" stop-color="rgb(89.801025%, 84.533691%, 60.139465%)" offset="0.816406"/><stop stop-opacity="1" stop-color="rgb(89.274597%, 83.752441%, 59.223938%)" offset="0.820312"/><stop stop-opacity="1" stop-color="rgb(88.748169%, 82.969666%, 58.308411%)" offset="0.824219"/><stop stop-opacity="1" stop-color="rgb(88.221741%, 82.188416%, 57.392883%)" offset="0.828125"/><stop stop-opacity="1" stop-color="rgb(87.693787%, 81.407166%, 56.47583%)" offset="0.832031"/><stop stop-opacity="1" stop-color="rgb(87.167358%, 80.625916%, 55.560303%)" offset="0.835938"/><stop stop-opacity="1" stop-color="rgb(86.64093%, 79.844666%, 54.64325%)" offset="0.839844"/><stop stop-opacity="1" stop-color="rgb(86.114502%, 79.063416%, 53.727722%)" offset="0.84375"/><stop stop-opacity="1" stop-color="rgb(85.586548%, 78.282166%, 52.810669%)" offset="0.847656"/><stop stop-opacity="1" stop-color="rgb(85.06012%, 77.500916%, 51.895142%)" offset="0.851562"/><stop stop-opacity="1" stop-color="rgb(84.533691%, 76.71814%, 50.979614%)" offset="0.855469"/><stop stop-opacity="1" stop-color="rgb(84.007263%, 75.93689%, 50.064087%)" offset="0.859375"/><stop stop-opacity="1" stop-color="rgb(83.479309%, 75.15564%, 49.147034%)" offset="0.863281"/><stop stop-opacity="1" stop-color="rgb(82.952881%, 74.37439%, 48.231506%)" offset="0.867187"/><stop stop-opacity="1" stop-color="rgb(82.426453%, 73.59314%, 47.314453%)" offset="0.871094"/><stop stop-opacity="1" stop-color="rgb(81.900024%, 72.81189%, 46.398926%)" offset="0.875"/><stop stop-opacity="1" stop-color="rgb(81.37207%, 72.029114%, 45.483398%)" offset="0.878906"/><stop stop-opacity="1" stop-color="rgb(80.845642%, 71.247864%, 44.567871%)" offset="0.882812"/><stop stop-opacity="1" stop-color="rgb(80.319214%, 70.466614%, 43.650818%)" offset="0.886719"/><stop stop-opacity="1" stop-color="rgb(79.792786%, 69.685364%, 42.735291%)" offset="0.890625"/><stop stop-opacity="1" stop-color="rgb(79.237366%, 68.862915%, 41.766357%)" offset="0.894531"/><stop stop-opacity="1" stop-color="rgb(78.681946%, 68.040466%, 40.797424%)" offset="0.898438"/><stop stop-opacity="1" stop-color="rgb(78.118896%, 67.207336%, 39.816284%)" offset="0.902344"/><stop stop-opacity="1" stop-color="rgb(77.557373%, 66.375732%, 38.83667%)" offset="0.90625"/><stop stop-opacity="1" stop-color="rgb(76.99585%, 65.544128%, 37.85553%)" offset="0.910156"/><stop stop-opacity="1" stop-color="rgb(76.434326%, 64.712524%, 36.875916%)" offset="0.914062"/><stop stop-opacity="1" stop-color="rgb(75.872803%, 63.879395%, 35.894775%)" offset="0.917969"/><stop stop-opacity="1" stop-color="rgb(75.311279%, 63.047791%, 34.915161%)" offset="0.921875"/><stop stop-opacity="1" stop-color="rgb(74.74823%, 62.214661%, 33.934021%)" offset="0.925781"/><stop stop-opacity="1" stop-color="rgb(74.186707%, 61.383057%, 32.954407%)" offset="0.929688"/><stop stop-opacity="1" stop-color="rgb(73.625183%, 60.551453%, 31.973267%)" offset="0.933594"/><stop stop-opacity="1" stop-color="rgb(73.06366%, 59.719849%, 30.993652%)" offset="0.9375"/><stop stop-opacity="1" stop-color="rgb(72.502136%, 58.886719%, 30.012512%)" offset="0.941406"/><stop stop-opacity="1" stop-color="rgb(71.940613%, 58.055115%, 29.031372%)" offset="0.945312"/><stop stop-opacity="1" stop-color="rgb(71.377563%, 57.221985%, 28.050232%)" offset="0.949219"/><stop stop-opacity="1" stop-color="rgb(70.81604%, 56.390381%, 27.070618%)" offset="0.953125"/><stop stop-opacity="1" stop-color="rgb(70.254517%, 55.558777%, 26.089478%)" offset="0.957031"/><stop stop-opacity="1" stop-color="rgb(69.692993%, 54.727173%, 25.109863%)" offset="0.960938"/><stop stop-opacity="1" stop-color="rgb(69.345093%, 54.212952%, 24.504089%)" offset="0.964844"/><stop stop-opacity="1" stop-color="rgb(68.998718%, 53.69873%, 23.899841%)" offset="0.96875"/><stop stop-opacity="1" stop-color="rgb(68.998718%, 53.69873%, 23.899841%)" offset="1"/></linearGradient><clipPath id="49271bfca5"><path d="M 233 85 L 234 85 L 234 86 L 233 86 Z M 233 85 " clip-rule="nonzero"/></clipPath><clipPath id="a09fbe2f86"><path d="M 233.257812 85.558594 C 233.238281 85.5625 233.21875 85.566406 233.203125 85.566406 C 233.316406 85.601562 233.296875 85.585938 233.257812 85.558594 Z M 233.257812 85.558594 " clip-rule="nonzero"/></clipPath><linearGradient x1="412.315958" gradientTransform="matrix(0.384883, 0, 0, 0.385588, 74.508922, 75.929568)" y1="25.007" x2="412.607978" gradientUnits="userSpaceOnUse" y2="25.007" id="ff36dc1fdc"><stop stop-opacity="1" stop-color="rgb(68.998718%, 53.69873%, 23.899841%)" offset="0"/><stop stop-opacity="1" stop-color="rgb(68.998718%, 53.69873%, 23.899841%)" offset="0.0625"/><stop stop-opacity="1" stop-color="rgb(68.998718%, 53.69873%, 23.899841%)" offset="0.09375"/><stop stop-opacity="1" stop-color="rgb(68.998718%, 53.69873%, 23.899841%)" offset="0.109375"/><stop stop-opacity="1" stop-color="rgb(69.042969%, 53.75061%, 23.956299%)" offset="0.117188"/><stop stop-opacity="1" stop-color="rgb(69.328308%, 54.075623%, 24.32251%)" offset="0.121094"/><stop stop-opacity="1" stop-color="rgb(69.569397%, 54.350281%, 24.632263%)" offset="0.125"/><stop stop-opacity="1" stop-color="rgb(69.80896%, 54.623413%, 24.940491%)" offset="0.128906"/><stop stop-opacity="1" stop-color="rgb(70.048523%, 54.898071%, 25.248718%)" offset="0.132812"/><stop stop-opacity="1" stop-color="rgb(70.288086%, 55.171204%, 25.556946%)" offset="0.136719"/><stop stop-opacity="1" stop-color="rgb(70.527649%, 55.445862%, 25.865173%)" offset="0.140625"/><stop stop-opacity="1" stop-color="rgb(70.767212%, 55.72052%, 26.173401%)" offset="0.144531"/><stop stop-opacity="1" stop-color="rgb(71.008301%, 55.995178%, 26.481628%)" offset="0.148438"/><stop stop-opacity="1" stop-color="rgb(71.247864%, 56.268311%, 26.789856%)" offset="0.152344"/><stop stop-opacity="1" stop-color="rgb(71.487427%, 56.542969%, 27.098083%)" offset="0.15625"/><stop stop-opacity="1" stop-color="rgb(71.784973%, 56.884766%, 27.468872%)" offset="0.160156"/><stop stop-opacity="1" stop-color="rgb(72.08252%, 57.226562%, 27.839661%)" offset="0.164063"/><stop stop-opacity="1" stop-color="rgb(72.486877%, 57.693481%, 28.327942%)" offset="0.167969"/><stop stop-opacity="1" stop-color="rgb(72.892761%, 58.1604%, 28.816223%)" offset="0.171875"/><stop stop-opacity="1" stop-color="rgb(73.297119%, 58.627319%, 29.304504%)" offset="0.175781"/><stop stop-opacity="1" stop-color="rgb(73.701477%, 59.094238%, 29.792786%)" offset="0.179688"/><stop stop-opacity="1" stop-color="rgb(74.105835%, 59.561157%, 30.279541%)" offset="0.183594"/><stop stop-opacity="1" stop-color="rgb(74.511719%, 60.029602%, 30.767822%)" offset="0.1875"/><stop stop-opacity="1" stop-color="rgb(74.916077%, 60.496521%, 31.256104%)" offset="0.191406"/><stop stop-opacity="1" stop-color="rgb(75.32196%, 60.96344%, 31.744385%)" offset="0.195313"/><stop stop-opacity="1" stop-color="rgb(75.726318%, 61.430359%, 32.23114%)" offset="0.199219"/><stop stop-opacity="1" stop-color="rgb(76.130676%, 61.897278%, 32.719421%)" offset="0.203125"/><stop stop-opacity="1" stop-color="rgb(76.535034%, 62.364197%, 33.207703%)" offset="0.207031"/><stop stop-opacity="1" stop-color="rgb(76.940918%, 62.831116%, 33.695984%)" offset="0.210938"/><stop stop-opacity="1" stop-color="rgb(77.345276%, 63.298035%, 34.182739%)" offset="0.214844"/><stop stop-opacity="1" stop-color="rgb(77.75116%, 63.766479%, 34.671021%)" offset="0.21875"/><stop stop-opacity="1" stop-color="rgb(78.155518%, 64.233398%, 35.159302%)" offset="0.222656"/><stop stop-opacity="1" stop-color="rgb(78.559875%, 64.700317%, 35.647583%)" offset="0.226563"/><stop stop-opacity="1" stop-color="rgb(78.964233%, 65.167236%, 36.134338%)" offset="0.230469"/><stop stop-opacity="1" stop-color="rgb(79.370117%, 65.634155%, 36.62262%)" offset="0.234375"/><stop stop-opacity="1" stop-color="rgb(79.832458%, 66.15448%, 37.188721%)" offset="0.238281"/><stop stop-opacity="1" stop-color="rgb(80.296326%, 66.676331%, 37.754822%)" offset="0.242188"/><stop stop-opacity="1" stop-color="rgb(80.781555%, 67.218018%, 38.35144%)" offset="0.246094"/><stop stop-opacity="1" stop-color="rgb(81.268311%, 67.759705%, 38.949585%)" offset="0.25"/><stop stop-opacity="1" stop-color="rgb(81.75354%, 68.301392%, 39.546204%)" offset="0.253906"/><stop stop-opacity="1" stop-color="rgb(82.240295%, 68.843079%, 40.144348%)" offset="0.257813"/><stop stop-opacity="1" stop-color="rgb(82.681274%, 69.345093%, 40.682983%)" offset="0.261719"/><stop stop-opacity="1" stop-color="rgb(83.123779%, 69.847107%, 41.223145%)" offset="0.265625"/><stop stop-opacity="1" stop-color="rgb(83.226013%, 70.053101%, 41.325378%)" offset="0.269531"/><stop stop-opacity="1" stop-color="rgb(83.328247%, 70.259094%, 41.429138%)" offset="0.273438"/><stop stop-opacity="1" stop-color="rgb(83.432007%, 70.462036%, 41.52832%)" offset="0.277344"/><stop stop-opacity="1" stop-color="rgb(83.537292%, 70.666504%, 41.627502%)" offset="0.28125"/><stop stop-opacity="1" stop-color="rgb(83.648682%, 70.860291%, 41.711426%)" offset="0.289063"/><stop stop-opacity="1" stop-color="rgb(83.87146%, 71.250916%, 41.877747%)" offset="0.296875"/><stop stop-opacity="1" stop-color="rgb(84.094238%, 71.640015%, 42.045593%)" offset="0.304688"/><stop stop-opacity="1" stop-color="rgb(84.317017%, 72.03064%, 42.211914%)" offset="0.3125"/><stop stop-opacity="1" stop-color="rgb(84.539795%, 72.421265%, 42.379761%)" offset="0.320313"/><stop stop-opacity="1" stop-color="rgb(84.762573%, 72.810364%, 42.547607%)" offset="0.328125"/><stop stop-opacity="1" stop-color="rgb(84.985352%, 73.200989%, 42.713928%)" offset="0.335938"/><stop stop-opacity="1" stop-color="rgb(85.209656%, 73.591614%, 42.881775%)" offset="0.34375"/><stop stop-opacity="1" stop-color="rgb(85.432434%, 73.980713%, 43.048096%)" offset="0.351563"/><stop stop-opacity="1" stop-color="rgb(85.655212%, 74.371338%, 43.215942%)" offset="0.359375"/><stop stop-opacity="1" stop-color="rgb(85.877991%, 74.760437%, 43.382263%)" offset="0.367188"/><stop stop-opacity="1" stop-color="rgb(86.100769%, 75.151062%, 43.55011%)" offset="0.375"/><stop stop-opacity="1" stop-color="rgb(86.323547%, 75.541687%, 43.716431%)" offset="0.382813"/><stop stop-opacity="1" stop-color="rgb(86.546326%, 75.930786%, 43.884277%)" offset="0.390625"/><stop stop-opacity="1" stop-color="rgb(86.769104%, 76.321411%, 44.050598%)" offset="0.398438"/><stop stop-opacity="1" stop-color="rgb(86.993408%, 76.716614%, 44.229126%)" offset="0.402344"/><stop stop-opacity="1" stop-color="rgb(87.107849%, 76.916504%, 44.325256%)" offset="0.40625"/><stop stop-opacity="1" stop-color="rgb(87.348938%, 77.355957%, 44.999695%)" offset="0.410156"/><stop stop-opacity="1" stop-color="rgb(87.590027%, 77.796936%, 45.674133%)" offset="0.414063"/><stop stop-opacity="1" stop-color="rgb(87.831116%, 78.236389%, 46.348572%)" offset="0.417969"/><stop stop-opacity="1" stop-color="rgb(88.072205%, 78.677368%, 47.02301%)" offset="0.421875"/><stop stop-opacity="1" stop-color="rgb(88.313293%, 79.118347%, 47.697449%)" offset="0.425781"/><stop stop-opacity="1" stop-color="rgb(88.554382%, 79.559326%, 48.371887%)" offset="0.429688"/><stop stop-opacity="1" stop-color="rgb(88.793945%, 79.998779%, 49.046326%)" offset="0.433594"/><stop stop-opacity="1" stop-color="rgb(89.035034%, 80.439758%, 49.720764%)" offset="0.4375"/><stop stop-opacity="1" stop-color="rgb(89.276123%, 80.879211%, 50.395203%)" offset="0.441406"/><stop stop-opacity="1" stop-color="rgb(89.517212%, 81.32019%, 51.069641%)" offset="0.445313"/><stop stop-opacity="1" stop-color="rgb(89.758301%, 81.761169%, 51.74408%)" offset="0.449219"/><stop stop-opacity="1" stop-color="rgb(89.99939%, 82.202148%, 52.418518%)" offset="0.453125"/><stop stop-opacity="1" stop-color="rgb(90.238953%, 82.641602%, 53.092957%)" offset="0.457031"/><stop stop-opacity="1" stop-color="rgb(90.480042%, 83.082581%, 53.767395%)" offset="0.460938"/><stop stop-opacity="1" stop-color="rgb(90.72113%, 83.522034%, 54.441833%)" offset="0.464844"/><stop stop-opacity="1" stop-color="rgb(90.962219%, 83.963013%, 55.116272%)" offset="0.46875"/><stop stop-opacity="1" stop-color="rgb(91.203308%, 84.403992%, 55.79071%)" offset="0.472656"/><stop stop-opacity="1" stop-color="rgb(91.444397%, 84.844971%, 56.465149%)" offset="0.476563"/><stop stop-opacity="1" stop-color="rgb(91.685486%, 85.284424%, 57.139587%)" offset="0.480469"/><stop stop-opacity="1" stop-color="rgb(91.926575%, 85.725403%, 57.814026%)" offset="0.484375"/><stop stop-opacity="1" stop-color="rgb(92.166138%, 86.164856%, 58.488464%)" offset="0.488281"/><stop stop-opacity="1" stop-color="rgb(92.407227%, 86.605835%, 59.162903%)" offset="0.492188"/><stop stop-opacity="1" stop-color="rgb(92.648315%, 87.046814%, 59.837341%)" offset="0.496094"/><stop stop-opacity="1" stop-color="rgb(92.889404%, 87.487793%, 60.51178%)" offset="0.5"/><stop stop-opacity="1" stop-color="rgb(93.130493%, 87.927246%, 61.186218%)" offset="0.503906"/><stop stop-opacity="1" stop-color="rgb(93.371582%, 88.368225%, 61.860657%)" offset="0.507813"/><stop stop-opacity="1" stop-color="rgb(93.612671%, 88.807678%, 62.535095%)" offset="0.511719"/><stop stop-opacity="1" stop-color="rgb(93.85376%, 89.248657%, 63.209534%)" offset="0.515625"/><stop stop-opacity="1" stop-color="rgb(94.093323%, 89.689636%, 63.883972%)" offset="0.519531"/><stop stop-opacity="1" stop-color="rgb(94.334412%, 90.130615%, 64.558411%)" offset="0.523438"/><stop stop-opacity="1" stop-color="rgb(94.5755%, 90.570068%, 65.232849%)" offset="0.527344"/><stop stop-opacity="1" stop-color="rgb(94.816589%, 91.011047%, 65.907288%)" offset="0.53125"/><stop stop-opacity="1" stop-color="rgb(95.057678%, 91.4505%, 66.581726%)" offset="0.535156"/><stop stop-opacity="1" stop-color="rgb(95.298767%, 91.891479%, 67.256165%)" offset="0.539063"/><stop stop-opacity="1" stop-color="rgb(95.53833%, 92.332458%, 67.930603%)" offset="0.542969"/><stop stop-opacity="1" stop-color="rgb(95.779419%, 92.773438%, 68.605042%)" offset="0.546875"/><stop stop-opacity="1" stop-color="rgb(96.020508%, 93.212891%, 69.27948%)" offset="0.550781"/><stop stop-opacity="1" stop-color="rgb(96.261597%, 93.65387%, 69.953918%)" offset="0.554688"/><stop stop-opacity="1" stop-color="rgb(96.502686%, 94.093323%, 70.628357%)" offset="0.558594"/><stop stop-opacity="1" stop-color="rgb(96.743774%, 94.534302%, 71.302795%)" offset="0.5625"/><stop stop-opacity="1" stop-color="rgb(96.984863%, 94.975281%, 71.977234%)" offset="0.566406"/><stop stop-opacity="1" stop-color="rgb(97.225952%, 95.41626%, 72.653198%)" offset="0.570312"/><stop stop-opacity="1" stop-color="rgb(97.257996%, 95.527649%, 72.906494%)" offset="0.574219"/><stop stop-opacity="1" stop-color="rgb(97.290039%, 95.640564%, 73.161316%)" offset="0.578125"/><stop stop-opacity="1" stop-color="rgb(96.598816%, 94.616699%, 71.960449%)" offset="0.582031"/><stop stop-opacity="1" stop-color="rgb(95.909119%, 93.592834%, 70.761108%)" offset="0.585938"/><stop stop-opacity="1" stop-color="rgb(95.217896%, 92.56897%, 69.560242%)" offset="0.589844"/><stop stop-opacity="1" stop-color="rgb(94.528198%, 91.545105%, 68.360901%)" offset="0.59375"/><stop stop-opacity="1" stop-color="rgb(93.838501%, 90.52124%, 67.160034%)" offset="0.597656"/><stop stop-opacity="1" stop-color="rgb(93.148804%, 89.497375%, 65.959167%)" offset="0.601563"/><stop stop-opacity="1" stop-color="rgb(92.457581%, 88.473511%, 64.758301%)" offset="0.605469"/><stop stop-opacity="1" stop-color="rgb(91.767883%, 87.449646%, 63.55896%)" offset="0.609375"/><stop stop-opacity="1" stop-color="rgb(91.07666%, 86.425781%, 62.358093%)" offset="0.613281"/><stop stop-opacity="1" stop-color="rgb(90.386963%, 85.401917%, 61.158752%)" offset="0.617188"/><stop stop-opacity="1" stop-color="rgb(89.69574%, 84.378052%, 59.957886%)" offset="0.621094"/><stop stop-opacity="1" stop-color="rgb(89.006042%, 83.354187%, 58.757019%)" offset="0.625"/><stop stop-opacity="1" stop-color="rgb(88.316345%, 82.328796%, 57.556152%)" offset="0.628906"/><stop stop-opacity="1" stop-color="rgb(87.626648%, 81.304932%, 56.356812%)" offset="0.632813"/><stop stop-opacity="1" stop-color="rgb(86.935425%, 80.281067%, 55.155945%)" offset="0.636719"/><stop stop-opacity="1" stop-color="rgb(86.245728%, 79.257202%, 53.956604%)" offset="0.640625"/><stop stop-opacity="1" stop-color="rgb(85.554504%, 78.233337%, 52.755737%)" offset="0.644531"/><stop stop-opacity="1" stop-color="rgb(84.864807%, 77.209473%, 51.556396%)" offset="0.648438"/><stop stop-opacity="1" stop-color="rgb(84.173584%, 76.185608%, 50.35553%)" offset="0.652344"/><stop stop-opacity="1" stop-color="rgb(83.483887%, 75.161743%, 49.154663%)" offset="0.65625"/><stop stop-opacity="1" stop-color="rgb(82.794189%, 74.137878%, 47.953796%)" offset="0.660156"/><stop stop-opacity="1" stop-color="rgb(82.104492%, 73.114014%, 46.754456%)" offset="0.664063"/><stop stop-opacity="1" stop-color="rgb(81.413269%, 72.090149%, 45.553589%)" offset="0.667969"/><stop stop-opacity="1" stop-color="rgb(80.723572%, 71.066284%, 44.354248%)" offset="0.671875"/><stop stop-opacity="1" stop-color="rgb(80.024719%, 70.030212%, 43.138123%)" offset="0.675781"/><stop stop-opacity="1" stop-color="rgb(79.325867%, 68.994141%, 41.921997%)" offset="0.679688"/><stop stop-opacity="1" stop-color="rgb(78.588867%, 67.903137%, 40.637207%)" offset="0.683594"/><stop stop-opacity="1" stop-color="rgb(77.853394%, 66.81366%, 39.352417%)" offset="0.6875"/><stop stop-opacity="1" stop-color="rgb(77.116394%, 65.722656%, 38.067627%)" offset="0.691406"/><stop stop-opacity="1" stop-color="rgb(76.38092%, 64.633179%, 36.782837%)" offset="0.695312"/><stop stop-opacity="1" stop-color="rgb(75.643921%, 63.542175%, 35.498047%)" offset="0.699219"/><stop stop-opacity="1" stop-color="rgb(74.908447%, 62.452698%, 34.213257%)" offset="0.703125"/><stop stop-opacity="1" stop-color="rgb(74.172974%, 61.361694%, 32.928467%)" offset="0.707031"/><stop stop-opacity="1" stop-color="rgb(73.4375%, 60.272217%, 31.643677%)" offset="0.710938"/><stop stop-opacity="1" stop-color="rgb(72.7005%, 59.181213%, 30.358887%)" offset="0.714844"/><stop stop-opacity="1" stop-color="rgb(71.965027%, 58.091736%, 29.074097%)" offset="0.71875"/><stop stop-opacity="1" stop-color="rgb(71.228027%, 57.000732%, 27.789307%)" offset="0.722656"/><stop stop-opacity="1" stop-color="rgb(70.492554%, 55.911255%, 26.506042%)" offset="0.726563"/><stop stop-opacity="1" stop-color="rgb(69.755554%, 54.820251%, 25.221252%)" offset="0.730469"/><stop stop-opacity="1" stop-color="rgb(69.020081%, 53.730774%, 23.936462%)" offset="0.734375"/><stop stop-opacity="1" stop-color="rgb(69.009399%, 53.713989%, 23.918152%)" offset="0.75"/><stop stop-opacity="1" stop-color="rgb(68.998718%, 53.69873%, 23.899841%)" offset="1"/></linearGradient></defs><g clip-path="url(#78398a6add)"><g clip-path="url(#3ed7fe4a85)"><path fill="#ffffff" d="M 75.300781 70.078125 L 310.140625 70.078125 L 310.140625 304.921875 L 75.300781 304.921875 Z M 75.300781 70.078125 " fill-opacity="1" fill-rule="nonzero"/></g></g><g clip-path="url(#30ac6e5ec6)"><g clip-path="url(#d44f6b3926)"><path fill="url(#f227b95716)" d="M 73.65625 75.929688 L 73.65625 312.15625 L 309.230469 312.15625 L 309.230469 75.929688 Z M 73.65625 75.929688 " fill-rule="nonzero"/></g></g><g clip-path="url(#49271bfca5)"><g clip-path="url(#a09fbe2f86)"><path fill="url(#ff36dc1fdc)" d="M 233.203125 85.558594 L 233.203125 85.601562 L 233.316406 85.601562 L 233.316406 85.558594 Z M 233.203125 85.558594 " fill-rule="nonzero"/></g></g><g fill="#000000" fill-opacity="1"><g transform="translate(162.414985, 267.133319)"><g><path d="M -15.875 -87.96875 C -12.8125 -96.96875 -7.675781 -103.160156 -0.46875 -106.546875 C 6.726562 -109.941406 19.484375 -111.640625 37.796875 -111.640625 C 41.609375 -111.640625 51.238281 -111.476562 66.6875 -111.15625 C 77.914062 -110.84375 87.816406 -108.410156 96.390625 -103.859375 C 104.960938 -99.304688 111.65625 -92.875 116.46875 -84.5625 C 121.289062 -76.25 123.703125 -66.585938 123.703125 -55.578125 C 123.703125 -38.953125 118.4375 -25.53125 107.90625 -15.3125 C 97.375 -5.101562 83.632812 0 66.6875 0 L 12.859375 0 L 13.015625 -1.59375 L 14.921875 -1.59375 C 17.566406 -1.59375 19.84375 -2.460938 21.75 -4.203125 C 23.65625 -5.953125 24.769531 -8.097656 25.09375 -10.640625 L 25.09375 -106.390625 C 11.851562 -106.078125 2.484375 -104.015625 -3.015625 -100.203125 C -5.867188 -98.191406 -8.035156 -96.257812 -9.515625 -94.40625 C -11.003906 -92.550781 -12.546875 -90.195312 -14.140625 -87.34375 Z M 35.40625 -106.390625 L 35.40625 -4.765625 L 66.6875 -4.765625 C 80.132812 -4.765625 91.015625 -9.421875 99.328125 -18.734375 C 107.640625 -28.054688 111.796875 -40.335938 111.796875 -55.578125 C 111.796875 -65.640625 109.914062 -74.503906 106.15625 -82.171875 C 102.394531 -89.847656 97.097656 -95.800781 90.265625 -100.03125 C 83.441406 -104.269531 75.582031 -106.390625 66.6875 -106.390625 Z M 35.40625 -106.390625 "/></g></g></g><g fill="#000000" fill-opacity="1"><g transform="translate(100.550185, 235.88332)"><g><path d="M 42.234375 -1.59375 L 44.296875 -1.59375 L 44.296875 0 L 9.53125 0 L 9.53125 -1.59375 L 11.59375 -1.59375 C 14.34375 -1.59375 16.695312 -2.570312 18.65625 -4.53125 C 20.613281 -6.488281 21.644531 -8.84375 21.75 -11.59375 L 21.75 -99.71875 C 21.644531 -102.476562 20.613281 -104.804688 18.65625 -106.703125 C 16.695312 -108.609375 14.34375 -109.5625 11.59375 -109.5625 L 9.53125 -109.5625 L 9.53125 -111.15625 L 44.296875 -111.15625 L 44.296875 -109.5625 L 42.234375 -109.5625 C 39.484375 -109.5625 37.128906 -108.609375 35.171875 -106.703125 C 33.210938 -104.804688 32.179688 -102.476562 32.078125 -99.71875 L 32.078125 -11.59375 C 32.078125 -8.84375 33.082031 -6.488281 35.09375 -4.53125 C 37.101562 -2.570312 39.484375 -1.59375 42.234375 -1.59375 Z M 152.28125 23.8125 L 152.28125 25.40625 C 148.257812 26.363281 144.238281 26.84375 140.21875 26.84375 C 122.851562 26.84375 106.019531 18.160156 89.71875 0.796875 L 37.15625 -55.265625 L 74.640625 -102.265625 C 75.484375 -103.328125 75.90625 -104.28125 75.90625 -105.125 C 75.90625 -105.96875 75.742188 -106.707031 75.421875 -107.34375 C 74.578125 -108.9375 73.046875 -109.734375 70.828125 -109.734375 L 69.234375 -109.734375 L 69.234375 -111.15625 L 102.734375 -111.15625 L 102.734375 -109.734375 L 102.109375 -109.734375 C 95.117188 -109.734375 89.398438 -107.242188 84.953125 -102.265625 L 47.953125 -59.546875 L 101.953125 -1.90625 C 108.929688 5.613281 116.785156 11.78125 125.515625 16.59375 C 134.253906 21.40625 143.175781 23.8125 152.28125 23.8125 Z M 152.28125 23.8125 "/></g></g></g><path fill="#ffffff" d="M 111.769531 186.832031 L 294.890625 186.832031 L 294.890625 200.332031 L 111.769531 200.332031 L 111.769531 186.832031 " fill-opacity="1" fill-rule="nonzero"/><g fill="#ef368f" fill-opacity="1"><g transform="translate(115.808009, 197.333322)"><g><path d="M 0.765625 0 L 0.765625 -7.453125 L 2.125 -7.453125 L 2.125 -4.125 L 5.234375 -7.453125 L 6.890625 -7.453125 L 3.375 -3.734375 C 3.675781 -3.578125 3.929688 -3.332031 4.140625 -3 L 4.984375 -1.703125 C 5.128906 -1.472656 5.269531 -1.316406 5.40625 -1.234375 C 5.550781 -1.148438 5.726562 -1.109375 5.9375 -1.109375 C 6.1875 -1.109375 6.40625 -1.171875 6.59375 -1.296875 L 6.90625 -0.234375 C 6.769531 -0.128906 6.597656 -0.0507812 6.390625 0 C 6.191406 0.0625 5.976562 0.09375 5.75 0.09375 C 4.957031 0.09375 4.34375 -0.25 3.90625 -0.9375 L 2.828125 -2.609375 C 2.722656 -2.753906 2.617188 -2.863281 2.515625 -2.9375 C 2.421875 -3.019531 2.289062 -3.082031 2.125 -3.125 L 2.125 0 Z M 0.765625 0 "/></g></g></g><g fill="#ef368f" fill-opacity="1"><g transform="translate(130.413479, 197.333322)"><g><path d="M -0.109375 0 L 3.078125 -7.453125 L 4.234375 -7.453125 L 7.28125 0 L 5.90625 0 L 5.234375 -1.703125 L 1.96875 -1.703125 L 1.28125 0 Z M 2.453125 -2.84375 L 4.78125 -2.84375 L 3.640625 -5.78125 Z M 2.453125 -2.84375 "/></g></g></g><g fill="#ef368f" fill-opacity="1"><g transform="translate(145.627946, 197.333322)"><g><path d="M 6.65625 -1.296875 L 6.96875 -0.234375 C 6.832031 -0.128906 6.660156 -0.0507812 6.453125 0 C 6.253906 0.0625 6.039062 0.09375 5.8125 0.09375 C 5.03125 0.09375 4.414062 -0.25 3.96875 -0.9375 L 2.890625 -2.609375 C 2.773438 -2.773438 2.65625 -2.894531 2.53125 -2.96875 C 2.414062 -3.039062 2.289062 -3.078125 2.15625 -3.078125 L 2.09375 -3.078125 L 2.09375 0 L 0.765625 0 L 0.765625 -7.453125 L 3.09375 -7.453125 C 4.03125 -7.453125 4.742188 -7.253906 5.234375 -6.859375 C 5.722656 -6.472656 5.96875 -5.9375 5.96875 -5.25 C 5.96875 -4.832031 5.875 -4.472656 5.6875 -4.171875 C 5.507812 -3.878906 5.257812 -3.644531 4.9375 -3.46875 C 4.625 -3.300781 4.269531 -3.191406 3.875 -3.140625 C 4.082031 -3.023438 4.273438 -2.835938 4.453125 -2.578125 L 5.046875 -1.703125 C 5.191406 -1.472656 5.332031 -1.316406 5.46875 -1.234375 C 5.613281 -1.148438 5.789062 -1.109375 6 -1.109375 C 6.238281 -1.109375 6.457031 -1.171875 6.65625 -1.296875 Z M 3 -6.34375 L 2.09375 -6.34375 L 2.09375 -4.140625 L 2.921875 -4.140625 C 3.503906 -4.140625 3.929688 -4.226562 4.203125 -4.40625 C 4.472656 -4.582031 4.609375 -4.863281 4.609375 -5.25 C 4.609375 -5.976562 4.070312 -6.34375 3 -6.34375 Z M 3 -6.34375 "/></g></g></g><g fill="#ef368f" fill-opacity="1"><g transform="translate(160.201921, 197.333322)"><g><path d="M 0.765625 0 L 0.765625 -7.453125 L 2.125 -7.453125 L 2.125 -1.203125 L 5.453125 -1.203125 L 5.359375 0 Z M 0.765625 0 "/></g></g></g><g fill="#ef368f" fill-opacity="1"><g transform="translate(173.589396, 197.333322)"><g><path d="M -0.109375 0 L 3.078125 -7.453125 L 4.234375 -7.453125 L 7.28125 0 L 5.90625 0 L 5.234375 -1.703125 L 1.96875 -1.703125 L 1.28125 0 Z M 2.453125 -2.84375 L 4.78125 -2.84375 L 3.640625 -5.78125 Z M 2.453125 -2.84375 "/></g></g></g><g fill="#000000" fill-opacity="1"><g transform="translate(188.804098, 197.333322)"><g/></g></g><g fill="#000000" fill-opacity="1"><g transform="translate(199.346092, 197.333322)"><g><path d="M 3.296875 0.078125 C 2.753906 0.078125 2.273438 -0.0078125 1.859375 -0.1875 C 1.441406 -0.375 1.113281 -0.632812 0.875 -0.96875 C 0.632812 -1.3125 0.515625 -1.695312 0.515625 -2.125 C 0.515625 -2.644531 0.640625 -3.066406 0.890625 -3.390625 C 1.140625 -3.710938 1.4375 -3.984375 1.78125 -4.203125 C 1.519531 -4.460938 1.332031 -4.71875 1.21875 -4.96875 C 1.113281 -5.21875 1.0625 -5.484375 1.0625 -5.765625 C 1.0625 -6.117188 1.144531 -6.429688 1.3125 -6.703125 C 1.488281 -6.972656 1.734375 -7.1875 2.046875 -7.34375 C 2.359375 -7.5 2.710938 -7.578125 3.109375 -7.578125 C 3.671875 -7.578125 4.125 -7.429688 4.46875 -7.140625 C 4.8125 -6.847656 4.984375 -6.460938 4.984375 -5.984375 C 4.984375 -5.628906 4.910156 -5.332031 4.765625 -5.09375 C 4.628906 -4.863281 4.453125 -4.671875 4.234375 -4.515625 C 4.023438 -4.367188 3.796875 -4.234375 3.546875 -4.109375 L 5.578125 -2.046875 C 5.828125 -2.421875 5.988281 -2.882812 6.0625 -3.4375 L 5.109375 -3.4375 L 5.109375 -4.5 L 8.078125 -4.5 L 8.078125 -3.4375 L 7.140625 -3.4375 C 7.085938 -3.019531 6.988281 -2.632812 6.84375 -2.28125 C 6.707031 -1.925781 6.535156 -1.609375 6.328125 -1.328125 C 6.484375 -1.203125 6.640625 -1.113281 6.796875 -1.0625 C 6.953125 -1.007812 7.125 -0.984375 7.3125 -0.984375 C 7.539062 -0.984375 7.765625 -1.046875 7.984375 -1.171875 L 8.296875 -0.25 C 7.960938 -0.0078125 7.5625 0.101562 7.09375 0.09375 C 6.46875 0.0820312 5.910156 -0.117188 5.421875 -0.515625 C 5.128906 -0.316406 4.800781 -0.164062 4.4375 -0.0625 C 4.082031 0.03125 3.703125 0.078125 3.296875 0.078125 Z M 2.28125 -5.8125 C 2.28125 -5.664062 2.316406 -5.519531 2.390625 -5.375 C 2.472656 -5.238281 2.628906 -5.050781 2.859375 -4.8125 C 3.140625 -4.96875 3.378906 -5.128906 3.578125 -5.296875 C 3.785156 -5.472656 3.890625 -5.691406 3.890625 -5.953125 C 3.890625 -6.179688 3.816406 -6.347656 3.671875 -6.453125 C 3.523438 -6.554688 3.34375 -6.609375 3.125 -6.609375 C 2.875 -6.609375 2.671875 -6.535156 2.515625 -6.390625 C 2.359375 -6.253906 2.28125 -6.0625 2.28125 -5.8125 Z M 1.84375 -2.28125 C 1.84375 -1.875 1.992188 -1.550781 2.296875 -1.3125 C 2.609375 -1.082031 3.019531 -0.96875 3.53125 -0.96875 C 3.957031 -0.96875 4.34375 -1.054688 4.6875 -1.234375 L 2.46875 -3.5 C 2.28125 -3.351562 2.128906 -3.179688 2.015625 -2.984375 C 1.898438 -2.796875 1.84375 -2.5625 1.84375 -2.28125 Z M 1.84375 -2.28125 "/></g></g></g><g fill="#000000" fill-opacity="1"><g transform="translate(215.883553, 197.333322)"><g/></g></g><g fill="#22a0a4" fill-opacity="1"><g transform="translate(226.433002, 197.333322)"><g><path d="M 0.765625 0 L 0.765625 -7.453125 L 2.984375 -7.453125 C 4.429688 -7.453125 5.523438 -7.140625 6.265625 -6.515625 C 7.003906 -5.898438 7.375 -4.984375 7.375 -3.765625 C 7.375 -3.003906 7.207031 -2.34375 6.875 -1.78125 C 6.550781 -1.21875 6.085938 -0.78125 5.484375 -0.46875 C 4.890625 -0.15625 4.1875 0 3.375 0 Z M 2.125 -1.203125 L 3.3125 -1.203125 C 4.1875 -1.203125 4.851562 -1.414062 5.3125 -1.84375 C 5.769531 -2.269531 6 -2.890625 6 -3.703125 C 6 -4.554688 5.765625 -5.191406 5.296875 -5.609375 C 4.828125 -6.035156 4.113281 -6.25 3.15625 -6.25 L 2.125 -6.25 Z M 2.125 -1.203125 "/></g></g></g><g fill="#22a0a4" fill-opacity="1"><g transform="translate(242.277466, 197.333322)"><g><path d="M 0.765625 0 L 0.765625 -7.453125 L 2.125 -7.453125 L 2.125 0 Z M 0.765625 0 "/></g></g></g><g fill="#22a0a4" fill-opacity="1"><g transform="translate(253.165952, 197.333322)"><g><path d="M 5.5625 -6.28125 L 2.09375 -6.28125 L 2.09375 -4.359375 L 5.390625 -4.359375 L 5.390625 -3.1875 L 2.09375 -3.1875 L 2.09375 -1.171875 L 5.6875 -1.171875 L 5.59375 0 L 0.765625 0 L 0.765625 -7.453125 L 5.5625 -7.453125 Z M 5.5625 -6.28125 "/></g></g></g><g fill="#22a0a4" fill-opacity="1"><g transform="translate(267.08893, 197.333322)"><g><path d="M 4.40625 -3.890625 L 7.359375 -3.890625 L 7.359375 0 L 6.28125 0 L 6.15625 -0.796875 C 5.914062 -0.472656 5.601562 -0.242188 5.21875 -0.109375 C 4.84375 0.0234375 4.429688 0.09375 3.984375 0.09375 C 3.265625 0.09375 2.640625 -0.0507812 2.109375 -0.34375 C 1.585938 -0.632812 1.179688 -1.054688 0.890625 -1.609375 C 0.609375 -2.160156 0.46875 -2.816406 0.46875 -3.578125 C 0.46875 -4.367188 0.628906 -5.0625 0.953125 -5.65625 C 1.285156 -6.25 1.75 -6.710938 2.34375 -7.046875 C 2.945312 -7.390625 3.648438 -7.5625 4.453125 -7.5625 C 5.109375 -7.5625 5.671875 -7.4375 6.140625 -7.1875 C 6.609375 -6.945312 7 -6.582031 7.3125 -6.09375 L 6.265625 -5.328125 C 6.066406 -5.660156 5.804688 -5.90625 5.484375 -6.0625 C 5.171875 -6.226562 4.820312 -6.3125 4.4375 -6.3125 C 3.914062 -6.3125 3.460938 -6.195312 3.078125 -5.96875 C 2.703125 -5.738281 2.410156 -5.421875 2.203125 -5.015625 C 1.992188 -4.609375 1.890625 -4.132812 1.890625 -3.59375 C 1.890625 -2.8125 2.085938 -2.207031 2.484375 -1.78125 C 2.878906 -1.351562 3.421875 -1.140625 4.109375 -1.140625 C 4.441406 -1.140625 4.753906 -1.195312 5.046875 -1.3125 C 5.335938 -1.425781 5.578125 -1.597656 5.765625 -1.828125 C 5.953125 -2.066406 6.046875 -2.359375 6.046875 -2.703125 L 6.046875 -2.765625 L 4.40625 -2.765625 Z M 4.40625 -3.890625 "/></g></g></g><g fill="#22a0a4" fill-opacity="1"><g transform="translate(282.975394, 197.333322)"><g><path d="M 4.078125 0.09375 C 3.328125 0.101562 2.679688 -0.0351562 2.140625 -0.328125 C 1.597656 -0.617188 1.179688 -1.039062 0.890625 -1.59375 C 0.609375 -2.144531 0.46875 -2.8125 0.46875 -3.59375 C 0.46875 -4.363281 0.617188 -5.046875 0.921875 -5.640625 C 1.234375 -6.242188 1.671875 -6.710938 2.234375 -7.046875 C 2.804688 -7.390625 3.472656 -7.5625 4.234375 -7.5625 C 4.921875 -7.5625 5.523438 -7.40625 6.046875 -7.09375 C 6.566406 -6.789062 6.96875 -6.363281 7.25 -5.8125 C 7.539062 -5.257812 7.6875 -4.613281 7.6875 -3.875 C 7.6875 -3.070312 7.53125 -2.375 7.21875 -1.78125 C 6.90625 -1.1875 6.476562 -0.722656 5.9375 -0.390625 C 5.394531 -0.0664062 4.773438 0.09375 4.078125 0.09375 Z M 4.046875 -1.140625 C 4.484375 -1.140625 4.867188 -1.242188 5.203125 -1.453125 C 5.546875 -1.671875 5.8125 -1.984375 6 -2.390625 C 6.195312 -2.796875 6.296875 -3.289062 6.296875 -3.875 C 6.296875 -4.625 6.109375 -5.222656 5.734375 -5.671875 C 5.359375 -6.117188 4.847656 -6.34375 4.203125 -6.34375 C 3.753906 -6.34375 3.351562 -6.226562 3 -6 C 2.644531 -5.769531 2.363281 -5.453125 2.15625 -5.046875 C 1.957031 -4.640625 1.859375 -4.160156 1.859375 -3.609375 C 1.859375 -2.816406 2.050781 -2.207031 2.4375 -1.78125 C 2.832031 -1.351562 3.367188 -1.140625 4.046875 -1.140625 Z M 4.046875 -1.140625 "/></g></g></g></svg>